<svg xmlns="http://www.w3.org/2000/svg" width="144" height="144" viewBox="0 0 144 144">
  <defs>
    <style>
      .cls-1 {
        fill: #232323;
      }

      .cls-1, .cls-2 {
        fill-rule: evenodd;
      }

      .cls-2 {
        fill: #6399b8;
      }
    </style>
  </defs>
  <path id="Git_Bits_Dun" data-name="Git Bits Dun" class="cls-1" d="M53.863,45.713q2.335-.31,4.592-0.467t4.436-.156q10.894,0,17.434,7.091T86.863,73.3a38.9,38.9,0,0,1-1.79,12.546,22.337,22.337,0,0,1-4.981,8.494,19.526,19.526,0,0,1-7.627,4.831,29.163,29.163,0,0,1-9.729,1.559q-2.182,0-4.67-.234t-4.2-.546V45.713Zm30.043,73.874a44.6,44.6,0,0,0,16.578-9.429,41.955,41.955,0,0,0,10.663-15.585,57.962,57.962,0,0,0,3.736-21.741q0-12.777-3.892-22.131a41.115,41.115,0,0,0-10.974-15.507,45.333,45.333,0,0,0-16.967-9.117,76.667,76.667,0,0,0-22.026-2.961q-5.917,0-13.387.7A65.27,65.27,0,0,0,33.471,26.7a12.792,12.792,0,0,0-4.9,2.883,6.853,6.853,0,0,0-1.79,5.065V107.43q0,8.106,8.561,11.378a36.775,36.775,0,0,0,6.771,1.948q3.656,0.7,7.316,1.169t7.083,0.623q3.422,0.153,6.071.156A69.147,69.147,0,0,0,83.905,119.587Z"/>
  <path class="cls-2" d="M99.79,32.294a47.823,47.823,0,0,1,6.316,6.324,98.415,98.415,0,0,1,6.316,8.853,171.441,171.441,0,0,1,16.421-17.706c10.863-9.1,18.067-15.629,13.895-20.235C133.669,1.568,99.79,32.294,99.79,32.294Zm-20.211,21.5a31.5,31.5,0,0,1,5.053,13.912c0.93,8.066-1.263,18.971-1.263,18.971s-6.729,10.9-12.632,22.765C64.365,122.253,60.415,136.091,55.579,136c-3.737-.067-11.587-16.765-21.474-30.353C20.3,86.669-3.209,73.008,1.263,66.441,7.44,57.126,51.79,81.618,51.79,81.618Z"/>
</svg>
