<svg xmlns="http://www.w3.org/2000/svg" width="652" height="102"><path data-name="Git Bits Dun" d="M71.744 52.176a7.071 7.071 0 00-7.764-7.764H43.154a7.213 7.213 0 00-5.237 1.972q-2.033 1.973-2.033 6.408a15.914 15.914 0 00.678 4.683 19.432 19.432 0 001.417 3.574h13.185v11.583a12.835 12.835 0 01-3.2 1.109 21.077 21.077 0 01-4.806.493 23.7 23.7 0 01-7.887-1.294A18.3 18.3 0 0128.736 69a18.618 18.618 0 01-4.5-6.778 26.146 26.146 0 01-1.664-9.8q0-10.473 6.1-16.39t16.451-5.915A28.719 28.719 0 0155.539 31.9a50.708 50.708 0 017.7 3.635 13.185 13.185 0 003.7-3.7 9.583 9.583 0 001.6-5.545q0-6.036-6.839-9.8t-18.546-3.748a51.659 51.659 0 00-15.835 2.465 40.254 40.254 0 00-13.679 7.455A37.032 37.032 0 004.028 35.17 40.056 40.056 0 00.392 52.792 40.2 40.2 0 003.72 69.675a34.5 34.5 0 009.057 12.138 37.838 37.838 0 0013.494 7.271 55.976 55.976 0 0016.636 2.4 61.9 61.9 0 006.716-.37 61.158 61.158 0 006.47-1.047 46.887 46.887 0 005.669-1.6 27.218 27.218 0 004.313-1.91 14.044 14.044 0 004.313-3.574q1.355-1.848 1.356-5.669V52.176zm15.217-31.3a11.12 11.12 0 008.318 3.2 11.12 11.12 0 008.318-3.2 10.825 10.825 0 003.143-7.887A10.831 10.831 0 00103.6 5.1a11.128 11.128 0 00-8.318-3.2 11.128 11.128 0 00-8.318 3.2 10.831 10.831 0 00-3.142 7.887 10.825 10.825 0 003.139 7.888zm18.793 18.362a13.1 13.1 0 00-.8-4.991 7.133 7.133 0 00-2.28-3.019 8.3 8.3 0 00-3.635-1.479 29 29 0 00-4.868-.37 33.368 33.368 0 00-5.361.431q-2.651.433-4.005.678v50.154a13.045 13.045 0 00.8 4.991 7.1 7.1 0 002.28 3.019 8.29 8.29 0 003.635 1.479 28.975 28.975 0 004.868.37 33.412 33.412 0 005.361-.431q2.648-.433 4.005-.678V39.237zm34.258 11.091h11.214a6.91 6.91 0 005.114-1.91q1.91-1.909 1.91-6.223a14.186 14.186 0 00-.678-4.5 21.148 21.148 0 00-1.417-3.389h-16.143v-7.886q0-6.161-3.019-8.072t-8.442-1.91a31.882 31.882 0 00-5.36.431q-2.528.433-3.882.8v52.744q0 11.091 5.853 16.02t16.7 4.929q8.873 0 12.385-2.958a9.526 9.526 0 003.512-7.64 9.167 9.167 0 00-.8-4.005 15.16 15.16 0 00-1.91-3.019 21.31 21.31 0 01-3.45.8 24.684 24.684 0 01-3.821.308 10.269 10.269 0 01-5.73-1.355q-2.032-1.355-2.033-4.56V50.327zm75.54 8.75h10.105q5.546 0 8.256 1.725t2.711 5.792a6.941 6.941 0 01-3.265 6.346 15.252 15.252 0 01-8.2 2.033q-2.467 0-5.176-.185a21.954 21.954 0 01-4.436-.678V59.077zm0-29.576a31.345 31.345 0 013.758-.37q2.4-.121 4.252-.123 5.545 0 8.318 1.972a6.184 6.184 0 012.773 5.3 7.054 7.054 0 01-2.4 5.792q-2.4 1.973-7.7 1.972h-9V29.5zm34.073 56.132q9.058-5.852 9.058-18.053a16.438 16.438 0 00-4.128-11.461 21.36 21.36 0 00-10.29-6.285 18.3 18.3 0 008.626-5.853 14.821 14.821 0 003.2-9.55q0-11.091-8.5-16.39t-24.277-5.3a120.967 120.967 0 00-12.939.678 47.187 47.187 0 00-10.475 2.155 10.137 10.137 0 00-3.882 2.28 5.416 5.416 0 00-1.417 4.005V79.41q0 6.409 6.778 9a28.862 28.862 0 005.422 1.54q2.958.555 5.977.924t5.854.493q2.832.121 4.929.123 17.007-.003 26.064-5.857zm22.3-64.758a12.4 12.4 0 0016.636 0 10.824 10.824 0 003.142-7.887 10.83 10.83 0 00-3.138-7.89 12.4 12.4 0 00-16.636 0 10.831 10.831 0 00-3.143 7.887 10.825 10.825 0 003.143 7.888zm18.793 18.362a13.1 13.1 0 00-.8-4.991 7.133 7.133 0 00-2.28-3.019 8.3 8.3 0 00-3.636-1.479 28.987 28.987 0 00-4.867-.37 33.378 33.378 0 00-5.361.431q-2.651.433-4 .678v50.153a13.049 13.049 0 00.8 4.991 7.1 7.1 0 002.28 3.019 8.29 8.29 0 003.635 1.479 28.985 28.985 0 004.868.37 33.415 33.415 0 005.361-.431q2.648-.433 4-.678V39.237zm34.262 11.088h11.214a6.91 6.91 0 005.114-1.91q1.91-1.909 1.91-6.223a14.186 14.186 0 00-.678-4.5 21.148 21.148 0 00-1.417-3.389H324.98v-7.884q0-6.161-3.02-8.072t-8.441-1.91a31.873 31.873 0 00-5.36.431q-2.528.433-3.882.8v52.744q0 11.091 5.853 16.02t16.7 4.929q8.873 0 12.385-2.958a9.526 9.526 0 003.512-7.64 9.181 9.181 0 00-.8-4.005 15.16 15.16 0 00-1.91-3.019 21.3 21.3 0 01-3.451.8 24.662 24.662 0 01-3.82.308 10.269 10.269 0 01-5.73-1.355q-2.034-1.355-2.033-4.56V50.327zm73.876 9.058q-4.99-4.743-16.821-7.456l-3.82-.863a14.12 14.12 0 01-4.683-1.6 2.6 2.6 0 01-1.232-2.218 3.064 3.064 0 012.218-2.9 16.9 16.9 0 016.285-.924 29 29 0 014.375.37q2.4.37 4.744.924t4.313 1.232a15.289 15.289 0 012.958 1.294 10.962 10.962 0 002.649-3.389 10.524 10.524 0 001.048-4.868 7.94 7.94 0 00-1.726-5.114 12.6 12.6 0 00-4.682-3.512 27.967 27.967 0 00-6.963-2.033 51.5 51.5 0 00-8.565-.678 42.049 42.049 0 00-11.029 1.356 27.824 27.824 0 00-8.564 3.82 17.008 17.008 0 00-7.518 14.418q0 8.382 5.238 12.878t15.958 6.593l3.7.739a13.741 13.741 0 014.929 1.6 3.094 3.094 0 011.479 2.711 3.323 3.323 0 01-2.033 2.958 12.456 12.456 0 01-5.854 1.109A33.654 33.654 0 01364.6 74.3a49 49 0 01-8.195-3.512 12.475 12.475 0 00-2.958 3.389 9.461 9.461 0 00-1.232 4.991A8.868 8.868 0 00354 84.709a13.54 13.54 0 004.929 3.882 27.531 27.531 0 007.579 2.28 58.569 58.569 0 009.612.739q13.678 0 20.7-5.3t7.024-14.665a16.159 16.159 0 00-4.988-12.26zm62.785-28.775q1.848-.246 3.635-.37t3.513-.123q8.624 0 13.8 5.607t5.176 16.7a30.709 30.709 0 01-1.417 9.92 17.65 17.65 0 01-3.943 6.716 15.459 15.459 0 01-6.039 3.82 23.108 23.108 0 01-7.7 1.232q-1.727 0-3.7-.185t-3.327-.431V30.61zm23.784 58.412a35.322 35.322 0 0013.124-7.456 33.154 33.154 0 008.441-12.323 45.765 45.765 0 002.958-17.191 45.345 45.345 0 00-3.081-17.5 32.5 32.5 0 00-8.688-12.262 35.9 35.9 0 00-13.432-7.209 60.76 60.76 0 00-17.437-2.341q-4.685 0-10.6.555a51.714 51.714 0 00-11.214 2.28 10.122 10.122 0 00-3.882 2.28 5.416 5.416 0 00-1.417 4.005v57.55q0 6.409 6.778 9a29.055 29.055 0 005.36 1.54q2.894.555 5.792.924t5.607.493q2.709.121 4.806.123a54.8 54.8 0 0016.885-2.468zm35.242-23.291a28.257 28.257 0 002.218 11.769 20.37 20.37 0 006.285 7.948 27.37 27.37 0 009.674 4.56 47.99 47.99 0 0012.261 1.479 56.373 56.373 0 0013-1.417 33.877 33.877 0 0010.29-4.128 10.067 10.067 0 005.176-9.242V39.237a13.1 13.1 0 00-.8-4.991 7.125 7.125 0 00-2.28-3.019 8.3 8.3 0 00-3.635-1.479 29.008 29.008 0 00-4.868-.37 39.632 39.632 0 00-5.484.37 28.48 28.48 0 00-3.881.739v43.131a15.843 15.843 0 01-2.773.986 17.815 17.815 0 01-4.621.493q-4.685 0-7.148-2.157t-2.464-7.209V39.237a13.1 13.1 0 00-.8-4.991 7.133 7.133 0 00-2.28-3.019 8.3 8.3 0 00-3.636-1.479 28.987 28.987 0 00-4.867-.37 39.632 39.632 0 00-5.484.37 28.47 28.47 0 00-3.882.739v35.244zm109.675 14.911a13.03 13.03 0 00.8 4.991 7.1 7.1 0 002.279 3.019 8.29 8.29 0 003.636 1.479 28.964 28.964 0 004.867.37 39.679 39.679 0 005.484-.37 28.61 28.61 0 003.882-.739V50.82q0-10.842-7.517-16.944t-21.442-6.1a50.366 50.366 0 00-14.11 1.849 35.275 35.275 0 00-10.537 4.806 14.958 14.958 0 00-3.882 3.82 9.495 9.495 0 00-1.417 5.422v36.97a13.049 13.049 0 00.8 4.991 7.1 7.1 0 002.28 3.019 8.29 8.29 0 003.635 1.479 28.985 28.985 0 004.868.37 39.69 39.69 0 005.484-.37 28.642 28.642 0 003.882-.739V46.631a12.312 12.312 0 014.128-1.849 19.545 19.545 0 014.868-.616 8.9 8.9 0 015.853 1.787q2.154 1.788 2.157 5.607v29.082z" fill-rule="evenodd" fill="#232323"/><path d="M498 20a37.873 37.873 0 015 5 77.757 77.757 0 015 7 135.571 135.571 0 0113-14c8.6-7.191 14.3-12.358 11-16-7.179-6.3-34 18-34 18zm-16 17a24.893 24.893 0 014 11c.736 6.378-1 15-1 15s-5.327 8.616-10 18c-5.044 10.131-8.171 21.072-12 21-2.959-.053-9.173-13.256-17-24-10.932-15.006-29.541-25.808-26-31 4.89-7.365 40 12 40 12z" fill="#6399b8" fill-rule="evenodd"/></svg>